PathFileType  4	(X/Y/Z) C:\Users\antoi\Documents\MyRepositories\mobilecap\ResultsAnalysis
DataRate	CameraRate	NumFrames	NumMarkers	Units	OrigDataRate	OrigDataStartFrame	OrigNumFrames
100.0	100.0	4	51	mm	100.0	427	1137
Frame#	Time	r_knee			r_shank_antsup			r_ankle			r_calc			r_5meta			r_toe			L_knee			L_shank_antsup			L_ankle			L_calc			L_5meta			L_toe			r_sh2			r_sh3			r_sh4			L_sh2			L_sh3			r_thigh1			r_thigh2			r_thigh3			r_thigh4			r_thigh5			L_thigh1			L_thigh2			L_thigh3			L_thigh4			r.ASIS			r.PSIS			L.ASIS			L.PSIS			C7			R_Shoulder			L_Shoulder			R_Sternum			L_Sternum			R_humerus			R_elbow_med			R_elbow_lat			R_forearm			R_wrist_radius			R_wrist_ulna			L_humerus			L_elbow_med			L_elbow_lat			L_forearm			L_wrist_radius			L_wrist_ulna			R_HJC			L_HJC			R_HJC_reg			L_HJC_reg			
		X1	Y1	Z1	X2	Y2	Z2	X3	Y3	Z3	X4	Y4	Z4	X5	Y5	Z5	X6	Y6	Z6	X7	Y7	Z7	X8	Y8	Z8	X9	Y9	Z9	X10	Y10	Z10	X11	Y11	Z11	X12	Y12	Z12	X13	Y13	Z13	X14	Y14	Z14	X15	Y15	Z15	X16	Y16	Z16	X17	Y17	Z17	X18	Y18	Z18	X19	Y19	Z19	X20	Y20	Z20	X21	Y21	Z21	X22	Y22	Z22	X23	Y23	Z23	X24	Y24	Z24	X25	Y25	Z25	X26	Y26	Z26	X27	Y27	Z27	X28	Y28	Z28	X29	Y29	Z29	X30	Y30	Z30	X31	Y31	Z31	X32	Y32	Z32	X33	Y33	Z33	X34	Y34	Z34	X35	Y35	Z35	X36	Y36	Z36	X37	Y37	Z37	X38	Y38	Z38	X39	Y39	Z39	X40	Y40	Z40	X41	Y41	Z41	X42	Y42	Z42	X43	Y43	Z43	X44	Y44	Z44	X45	Y45	Z45	X46	Y46	Z46	X47	Y47	Z47	X48	Y48	Z48	X49	Y49	Z49	X50	Y50	Z50	X51	Y51	Z51	

427	4.26000000	-157.11631	425.52521	-358.68578	-121.84656	316.89716	-370.30353	-292.45643	93.77552	-389.24277	-342.36150	51.53484	-441.48672	-190.08090	42.21797	-343.29948	-149.53599	60.29949	-381.84397	-156.52653	428.31816	-824.53766	-112.49964	317.97019	-782.96234	-297.25997	91.24638	-794.00739	-349.01429	51.11705	-743.13248	-186.41864	35.93638	-818.51478	-146.23313	55.10295	-766.71408	-174.36051	217.39300	-385.34299	-179.29306	337.36186	-325.67730	-242.20359	245.61138	-347.65006	-160.23069	359.01026	-848.07853	-217.32104	250.24314	-852.34320	-413.37589	575.77281	-403.91395	-313.02226	556.87279	-388.11288	-305.17630	503.60736	-343.76116	-444.02877	476.00649	-362.79055	-332.02171	454.56550	-344.45282	-409.10150	561.26141	-787.35382	-281.38482	542.08763	-798.16189	-447.54688	458.01140	-815.88531	-311.82063	438.82782	-827.39184	-377.62081	569.16921	-467.20763	-532.67503	653.21011	-538.92360	-372.41830	564.13818	-704.16294	-533.06368	655.44096	-643.45732	-186.46000	970.89988	-578.53896	-123.32750	925.80481	-442.80504	-112.59756	921.73680	-712.01398	-105.94187	853.58536	-556.87810	-104.68127	850.58022	-593.97292	-136.66649	824.19670	-357.67189	-280.64925	662.28066	-316.87028	-215.67506	679.41835	-265.24163	-122.67034	669.72609	-344.82447	-63.35354	677.97546	-427.15311	-51.50312	643.80976	-417.66965	-95.11071	804.56145	-800.40981	-167.31935	616.11960	-844.12424	-121.52251	646.78412	-900.63644	-38.77096	646.23428	-829.02795	23.19205	648.94143	-718.69928	40.05733	623.90444	-729.79007	-478.93486	521.73822	-489.44117	-472.57020	514.71771	-678.58160	-460.27463	517.49914	-500.86560	-460.85613	520.83716	-657.29213	
428	4.27000000	-156.65836	425.51259	-359.30346	-121.57335	316.91044	-370.77166	-292.39871	93.80803	-389.39700	-342.35005	51.55739	-441.53659	-190.03971	42.22998	-343.35850	-149.54135	60.26830	-381.90809	-156.19934	428.41071	-824.35520	-112.29068	317.99696	-782.73749	-297.22077	91.30629	-793.84033	-348.96621	51.25913	-743.25411	-186.40648	35.97434	-818.46120	-146.24315	55.07345	-766.56964	-174.09946	217.34527	-385.77529	-178.79546	337.29900	-326.24556	-241.51656	245.81908	-347.56100	-160.02249	359.01126	-847.87605	-217.14912	250.47751	-852.31145	-412.85228	575.78835	-404.07083	-311.95361	556.61616	-388.54814	-304.68619	503.82885	-344.02579	-443.74450	476.28917	-362.83126	-331.66677	454.82426	-344.54323	-408.76471	561.83856	-787.15950	-281.10448	542.35206	-797.80815	-447.28298	458.72000	-815.74727	-311.32605	439.94194	-828.26190	-377.57607	569.45865	-466.80595	-532.36167	653.97514	-538.79193	-372.22499	564.47006	-704.03300	-532.62153	656.36869	-643.26459	-186.58949	972.20823	-578.73078	-123.25843	927.23134	-443.06704	-112.46940	922.98069	-711.93781	-105.77506	855.13809	-556.84236	-104.52969	852.25188	-594.30876	-136.85396	825.91358	-357.64520	-281.70029	664.80567	-317.04088	-216.77899	681.60226	-265.01365	-123.51915	670.91209	-344.80734	-64.18982	679.35966	-426.87548	-52.60517	645.00609	-417.54334	-95.12105	805.71922	-800.22809	-167.90906	617.59936	-843.77788	-122.00653	648.00119	-900.55810	-39.27330	646.96067	-828.85142	22.46750	649.53163	-718.10816	39.19751	624.44916	-729.31707	-479.05755	522.35391	-489.28807	-472.56143	515.39863	-678.42662	-460.41470	517.80216	-500.68843	-460.80403	521.39012	-657.29115	
429	4.28000000	-155.92227	425.33374	-359.80609	-121.07893	316.69880	-371.40604	-292.40604	93.88117	-389.39687	-342.30949	51.56566	-441.61127	-189.95085	42.01645	-343.62391	-149.52039	60.18956	-381.97187	-155.75427	428.37928	-824.18581	-111.90777	317.93939	-782.67180	-297.15750	91.37738	-793.67560	-348.83680	51.61550	-743.75642	-186.38929	36.05118	-818.46163	-146.23283	55.06520	-766.48543	-173.66677	217.16751	-386.25202	-178.18189	337.26309	-326.54251	-240.63505	245.98146	-347.46667	-159.72157	358.89134	-847.66787	-216.75396	250.72231	-852.27380	-412.09772	575.77217	-404.15543	-311.18494	556.49877	-388.70058	-303.92514	503.87831	-344.33577	-443.13550	476.38620	-362.75451	-330.97809	454.99230	-344.54768	-408.16652	562.16995	-787.04708	-280.63043	542.46858	-797.60046	-446.68815	459.13504	-815.77667	-308.23619	441.17532	-831.04835	-377.45443	569.46779	-466.34677	-532.00107	654.34566	-538.61675	-371.94880	564.64682	-703.93087	-532.20612	656.83232	-643.07713	-186.82346	973.36559	-578.77180	-123.35179	928.70770	-443.36779	-112.53102	924.26321	-711.89142	-105.73091	856.73355	-556.81458	-104.41896	853.95999	-594.68373	-136.88740	827.58350	-357.58339	-282.33928	666.93289	-316.96817	-217.46196	683.58212	-264.63243	-123.81702	672.05336	-344.78876	-64.86110	680.94335	-426.58262	-53.36056	646.52488	-417.31066	-95.10377	806.94918	-800.16810	-168.00609	619.00976	-843.66492	-122.01583	649.34194	-900.77798	-39.43224	647.90790	-828.66919	22.03919	650.45286	-717.67783	38.65491	625.32233	-728.88012	-479.02428	522.59181	-489.13912	-472.39220	515.75533	-678.27740	-460.40454	517.89355	-500.37666	-460.71254	521.62702	-657.21168	
430	4.29000000	-154.96467	425.05007	-360.27535	-120.30963	316.34995	-372.03424	-292.17528	93.70190	-389.81157	-342.26400	51.61674	-441.63288	-189.81278	41.65876	-344.03833	-149.45668	60.08376	-382.07798	-155.17916	428.24630	-824.02447	-111.43570	317.78837	-782.68544	-297.07207	91.52934	-793.69233	-348.78650	51.80371	-743.77039	-186.37068	36.10903	-818.44433	-146.18873	55.05854	-766.46095	-173.14814	216.95194	-386.61058	-177.38807	337.17570	-326.82016	-239.98377	245.95176	-347.65344	-159.26565	358.79329	-847.60995	-216.27809	250.79992	-852.20048	-411.25464	575.81014	-404.01780	-310.62290	556.62505	-388.82529	-302.92328	503.67093	-344.62915	-442.19307	476.23021	-362.70359	-329.98848	454.92100	-344.57784	-407.47371	562.19176	-786.97388	-279.88486	542.38720	-797.43174	-445.94277	459.12694	-815.77340	-305.61221	441.66546	-832.81172	-377.19007	568.93561	-465.94984	-531.51845	654.27319	-538.33671	-371.47590	564.65536	-703.74883	-531.79844	656.89373	-642.92004	-187.20641	974.39468	-578.81796	-123.68369	930.17302	-443.51925	-112.82401	925.46652	-711.83359	-105.83937	858.29656	-556.85813	-104.34228	855.56238	-594.82348	-136.88941	829.22661	-357.43250	-282.59353	668.69605	-316.55527	-217.65274	685.38484	-264.08233	-123.93913	673.59407	-344.41810	-65.29525	682.64762	-426.27801	-53.74722	648.30524	-416.91190	-95.06280	808.28649	-800.25566	-167.69535	620.27114	-843.85944	-121.63905	650.70523	-901.25128	-39.20465	649.01031	-828.64378	21.85485	651.68669	-717.39579	38.57472	626.56674	-728.61595	-478.83680	522.30410	-489.08128	-472.02593	515.82133	-678.22524	-460.13767	517.69462	-500.01334	-460.55790	521.62752	-656.98172	
